<svg width="38" height="38" viewBox="0 0 38 38" fill="none" xmlns="http://www.w3.org/2000/svg">
<path opacity="0.4" d="M32.9816 12.6824L22.6108 4.3857C20.5841 2.7707 17.4174 2.75487 15.4066 4.36987L5.03576 12.6824C3.54742 13.8699 2.64492 16.2449 2.96159 18.1132L4.95659 30.0515C5.41576 32.7274 7.90159 34.8332 10.6091 34.8332H27.3924C30.0683 34.8332 32.6016 32.6799 33.0608 30.0357L35.0558 18.0974C35.3408 16.2449 34.4383 13.8699 32.9816 12.6824Z" fill="#134167"/>
<path d="M19 29.6875C18.3508 29.6875 17.8125 29.1492 17.8125 28.5V23.75C17.8125 23.1008 18.3508 22.5625 19 22.5625C19.6492 22.5625 20.1875 23.1008 20.1875 23.75V28.5C20.1875 29.1492 19.6492 29.6875 19 29.6875Z" fill="#134167"/>
</svg>
