<svg width="17" height="17" viewBox="0 0 17 17" fill="none" xmlns="http://www.w3.org/2000/svg">
<path d="M8.02823 1.94336C5.81747 1.94336 4.02081 3.74002 4.02081 5.95078V7.88102C4.02081 8.28844 3.84715 8.90959 3.6401 9.2569L2.87201 10.5326C2.3978 11.3207 2.72507 12.1957 3.59335 12.4896C6.47201 13.4513 9.57776 13.4513 12.4564 12.4896C13.2646 12.2224 13.6186 11.2673 13.1778 10.5326L12.4097 9.2569C12.2093 8.90959 12.0356 8.28844 12.0356 7.88102V5.95078C12.0356 3.7467 10.2323 1.94336 8.02823 1.94336Z" stroke="#292D32" stroke-width="1.00186" stroke-miterlimit="10" stroke-linecap="round"/>
<path d="M9.26421 2.13746C9.05716 2.07735 8.84343 2.03059 8.62302 2.00388C7.98184 1.92373 7.36737 1.97048 6.79297 2.13746C6.98666 1.64321 7.46755 1.2959 8.02859 1.2959C8.58963 1.2959 9.07052 1.64321 9.26421 2.13746Z" stroke="#292D32" stroke-width="1.00186" stroke-miterlimit="10" stroke-linecap="round" stroke-linejoin="round"/>
<path d="M10.0328 12.7305C10.0328 13.8325 9.13114 14.7342 8.0291 14.7342C7.48142 14.7342 6.97381 14.5071 6.61315 14.1464C6.25248 13.7858 6.02539 13.2781 6.02539 12.7305" stroke="#292D32" stroke-width="1.00186" stroke-miterlimit="10"/>
</svg>
