<svg width="38" height="38" viewBox="0 0 38 38" fill="none" xmlns="http://www.w3.org/2000/svg">
<path d="M3.16602 14.2498V10.2915C3.16602 6.349 6.34852 3.1665 10.291 3.1665H14.2493" stroke="white" stroke-width="2.375" stroke-linecap="round" stroke-linejoin="round"/>
<path d="M23.75 3.1665H27.7083C31.6508 3.1665 34.8333 6.349 34.8333 10.2915V14.2498" stroke="white" stroke-width="2.375" stroke-linecap="round" stroke-linejoin="round"/>
<path d="M34.834 25.3335V27.7085C34.834 31.651 31.6515 34.8335 27.709 34.8335H25.334" stroke="white" stroke-width="2.375" stroke-linecap="round" stroke-linejoin="round"/>
<path d="M14.2493 34.8333H10.291C6.34852 34.8333 3.16602 31.6508 3.16602 27.7083V23.75" stroke="white" stroke-width="2.375" stroke-linecap="round" stroke-linejoin="round"/>
<path d="M16.6257 11.0835V14.2502C16.6257 15.8335 15.834 16.6252 14.2507 16.6252H11.084C9.50065 16.6252 8.70898 15.8335 8.70898 14.2502V11.0835C8.70898 9.50016 9.50065 8.7085 11.084 8.7085H14.2507C15.834 8.7085 16.6257 9.50016 16.6257 11.0835Z" stroke="white" stroke-width="2.375" stroke-linecap="round" stroke-linejoin="round"/>
<path d="M29.2917 11.0835V14.2502C29.2917 15.8335 28.5 16.6252 26.9167 16.6252H23.75C22.1667 16.6252 21.375 15.8335 21.375 14.2502V11.0835C21.375 9.50016 22.1667 8.7085 23.75 8.7085H26.9167C28.5 8.7085 29.2917 9.50016 29.2917 11.0835Z" stroke="white" stroke-width="2.375" stroke-linecap="round" stroke-linejoin="round"/>
<path d="M16.6257 23.75V26.9167C16.6257 28.5 15.834 29.2917 14.2507 29.2917H11.084C9.50065 29.2917 8.70898 28.5 8.70898 26.9167V23.75C8.70898 22.1667 9.50065 21.375 11.084 21.375H14.2507C15.834 21.375 16.6257 22.1667 16.6257 23.75Z" stroke="white" stroke-width="2.375" stroke-linecap="round" stroke-linejoin="round"/>
<path d="M29.2917 23.75V26.9167C29.2917 28.5 28.5 29.2917 26.9167 29.2917H23.75C22.1667 29.2917 21.375 28.5 21.375 26.9167V23.75C21.375 22.1667 22.1667 21.375 23.75 21.375H26.9167C28.5 21.375 29.2917 22.1667 29.2917 23.75Z" stroke="white" stroke-width="2.375" stroke-linecap="round" stroke-linejoin="round"/>
</svg>
