<svg width="38" height="38" viewBox="0 0 38 38" fill="none" xmlns="http://www.w3.org/2000/svg">
<path opacity="0.4" d="M17.4318 31.6982C25.3107 31.6982 31.6977 25.3111 31.6977 17.4323C31.6977 9.55354 25.3107 3.1665 17.4318 3.1665C9.55305 3.1665 3.16602 9.55354 3.16602 17.4323C3.16602 25.3111 9.55305 31.6982 17.4318 31.6982Z" fill="#134167"/>
<path d="M34.8168 30.0042C34.2943 29.0383 33.1859 28.5 31.6976 28.5C30.5734 28.5 29.6076 28.9592 29.0376 29.7508C28.4676 30.5425 28.3409 31.6033 28.6893 32.6642C29.3701 34.7225 30.5576 35.1817 31.2068 35.2608C31.3018 35.2767 31.3968 35.2767 31.5076 35.2767C32.2043 35.2767 33.2809 34.9758 34.3259 33.4083C35.1651 32.1892 35.3234 30.97 34.8168 30.0042Z" fill="#134167"/>
</svg>
