<svg width="38" height="38" viewBox="0 0 38 38" fill="none" xmlns="http://www.w3.org/2000/svg">
<path d="M3.16602 3.1665H5.92102C7.63102 3.1665 8.97685 4.639 8.83435 6.33317L7.52018 22.1032C7.29852 24.684 9.34101 26.9007 11.9377 26.9007H28.8002C31.0802 26.9007 33.0752 25.0323 33.2493 22.7682L34.1043 10.8932C34.2943 8.26485 32.2993 6.12733 29.6552 6.12733H9.21436" stroke="#66626C" stroke-width="2.375" stroke-miterlimit="10" stroke-linecap="round" stroke-linejoin="round"/>
<path d="M25.7292 34.8333C26.8222 34.8333 27.7083 33.9472 27.7083 32.8542C27.7083 31.7611 26.8222 30.875 25.7292 30.875C24.6361 30.875 23.75 31.7611 23.75 32.8542C23.75 33.9472 24.6361 34.8333 25.7292 34.8333Z" stroke="#66626C" stroke-width="2.375" stroke-miterlimit="10" stroke-linecap="round" stroke-linejoin="round"/>
<path d="M13.0632 34.8333C14.1562 34.8333 15.0423 33.9472 15.0423 32.8542C15.0423 31.7611 14.1562 30.875 13.0632 30.875C11.9701 30.875 11.084 31.7611 11.084 32.8542C11.084 33.9472 11.9701 34.8333 13.0632 34.8333Z" stroke="#66626C" stroke-width="2.375" stroke-miterlimit="10" stroke-linecap="round" stroke-linejoin="round"/>
<path d="M14.25 12.6665H33.25" stroke="#66626C" stroke-width="2.375" stroke-miterlimit="10" stroke-linecap="round" stroke-linejoin="round"/>
</svg>
