<svg width="38" height="38" viewBox="0 0 38 38" fill="none" xmlns="http://www.w3.org/2000/svg">
<path d="M25.7298 35.6252C27.2601 35.6252 28.5007 34.3846 28.5007 32.8543C28.5007 31.324 27.2601 30.0835 25.7298 30.0835C24.1995 30.0835 22.959 31.324 22.959 32.8543C22.959 34.3846 24.1995 35.6252 25.7298 35.6252Z" fill="#134167"/>
<path d="M13.0618 35.6252C14.5921 35.6252 15.8327 34.3846 15.8327 32.8543C15.8327 31.324 14.5921 30.0835 13.0618 30.0835C11.5316 30.0835 10.291 31.324 10.291 32.8543C10.291 34.3846 11.5316 35.6252 13.0618 35.6252Z" fill="#134167"/>
<path opacity="0.4" d="M7.66268 6.23817L7.34601 10.1173C7.28268 10.8615 7.86852 11.479 8.61269 11.479H32.8535C33.5185 11.479 34.0727 10.9723 34.1202 10.3073C34.326 7.50483 32.1885 5.22484 29.386 5.22484H9.95851C9.80017 4.52818 9.4835 3.86316 8.99267 3.309C8.21684 2.46983 7.10852 1.979 5.96852 1.979H3.16602C2.51685 1.979 1.97852 2.51734 1.97852 3.1665C1.97852 3.81567 2.51685 4.354 3.16602 4.354H5.92102C6.41186 4.354 6.87102 4.55985 7.20352 4.90818C7.53602 5.27235 7.69434 5.74734 7.66268 6.23817Z" fill="#134167"/>
<path d="M32.4749 13.854H8.18657C7.52157 13.854 6.98324 14.3607 6.9199 15.0098L6.3499 21.8973C6.12824 24.589 8.24991 26.9165 10.9574 26.9165H28.5641C30.9391 26.9165 33.0291 24.969 33.2032 22.594L33.7258 15.1998C33.7891 14.4715 33.2191 13.854 32.4749 13.854Z" fill="#134167"/>
</svg>
