<svg width="22" height="22" viewBox="0 0 22 22" fill="none" xmlns="http://www.w3.org/2000/svg">
<path opacity="0.4" d="M5.11072 14.2488C5.20868 13.8124 5.03057 13.189 4.71888 12.8774L2.55487 10.7133C1.87807 10.0365 1.6109 9.3152 1.80682 8.69183C2.01165 8.06845 2.64393 7.64099 3.5879 7.48069L6.36638 7.01761C6.76712 6.94637 7.25692 6.59016 7.44393 6.22503L8.97565 3.15268C9.42092 2.27105 10.0265 1.78125 10.6855 1.78125C11.3445 1.78125 11.9501 2.27105 12.3953 3.15268L13.927 6.22503C14.0428 6.45657 14.2833 6.67921 14.5415 6.8306L4.95042 16.4217C4.82575 16.5464 4.61202 16.4306 4.64764 16.2525L5.11072 14.2488Z" fill="#FF6C02"/>
<path d="M16.6539 12.8773C16.3333 13.1979 16.1552 13.8124 16.2621 14.2488L16.8765 16.9293C17.1348 18.0425 16.9745 18.8796 16.4224 19.2803C16.1997 19.4406 15.9326 19.5208 15.6209 19.5208C15.1667 19.5208 14.6324 19.3516 14.0446 19.0042L11.4353 17.4547C11.0257 17.2143 10.3489 17.2143 9.93923 17.4547L7.32996 19.0042C6.34146 19.5831 5.49545 19.6811 4.95222 19.2803C4.7474 19.1289 4.59601 18.9241 4.49805 18.6569L15.327 7.82799C15.7366 7.41835 16.3155 7.23133 16.8765 7.32929L17.776 7.48068C18.7199 7.64098 19.3522 8.06844 19.557 8.69182C19.753 9.31519 19.4858 10.0365 18.809 10.7133L16.6539 12.8773Z" fill="#FF6C02"/>
</svg>
